Coordinates
version=1
nRows=22
nColumns=24
inDegrees=yes

Units are S.I. units (second, meters, Newtons, ...)
Angles are in degrees.

endheader
time	pelvis_tilt	pelvis_list	pelvis_rotation	pelvis_tx	pelvis_ty	pelvis_tz	hip_flexion_r	hip_adduction_r	hip_rotation_r	knee_angle_r	ankle_angle_r	subtalar_angle_r	mtp_angle_r	hip_flexion_l	hip_adduction_l	hip_rotation_l	knee_angle_l	ankle_angle_l	subtalar_angle_l	mtp_angle_l	lumbar_extension	lumbar_bending	lumbar_rotation
      3.92500000	     -9.54198726	      7.30355251	     -3.71349660	     -0.80062911	     -0.01776436	     -0.33536507	     26.19064055	    -12.16017676	     -5.21059166	    -65.39821671	    -15.01611543	     -1.97000819	     23.51846394	     16.54801347	     11.23878770	      6.51882863	    -15.98706253	      6.01290291	      1.32593412	    -13.92941994	     10.99243547	     -9.81918613	      0.97565283
      3.93000000	     -9.48869156	      6.96880039	     -3.52689754	     -0.79469303	     -0.01683474	     -0.33599805	     26.74290115	    -11.89882609	     -5.64790470	    -64.95934179	    -14.46554810	     -1.68418269	     23.92898840	     15.73155919	     11.03134405	      7.08380500	    -15.48206720	      6.13554829	      1.02759223	    -14.19467401	     10.87596899	     -9.48530590	      0.49275786
      3.93500000	     -9.43410973	      6.63586786	     -3.33607800	     -0.78876775	     -0.01597828	     -0.33662676	     27.27790483	    -11.64471292	     -6.10612487	    -64.45688849	    -13.91337622	     -1.38522467	     24.33802826	     14.91882468	     10.82095093	      7.68500132	    -14.98446472	      6.26712261	      0.69124237	    -14.52582099	     10.75981157	     -9.15462007	      0.02101212
      3.94000000	     -9.39254470	      6.30402827	     -3.14332890	     -0.78286643	     -0.01521440	     -0.33725014	     27.81422324	    -11.38588038	     -6.56326107	    -63.89547183	    -13.35388305	     -1.07653557	     24.70899330	     14.13485956	     10.60053285	      8.26554961	    -14.50731342	      6.42448981	      0.37551356	    -14.87738341	     10.65644379	     -8.82483000	     -0.45302575
      3.94500000	     -9.34111598	      5.98622336	     -2.96204898	     -0.77694470	     -0.01450581	     -0.33785948	     28.32632139	    -11.14284044	     -7.02942377	    -63.26849439	    -12.81430916	     -0.77880057	     25.06391825	     13.33168131	     10.38729864	      8.87573119	    -14.01392387	      6.59131440	      0.00182876	    -15.37261299	     10.55366179	     -8.50367239	     -0.87208995
      3.95000000	     -9.38530942	      5.65161386	     -2.85039664	     -0.77112055	     -0.01401567	     -0.33827616	     28.96470913	    -10.79891802	     -7.38959165	    -62.60827268	    -12.27083313	     -0.49296774	     25.25884094	     12.69548425	     10.09690628	      9.19942969	    -13.59676438	      6.82068048	     -0.10925460	    -15.49417027	     10.55739856	     -8.16464099	     -1.27385956
      3.95500000	     -9.26583132	      5.38875832	     -2.57174052	     -0.76522355	     -0.01340618	     -0.33898864	     29.34606709	    -10.67344459	     -7.94696622	    -61.86719447	    -11.65532116	     -0.14987400	     25.53008477	     11.81302975	      9.95360396	      9.94740940	    -13.08939154	      6.97273913	     -0.52670310	    -16.12889274	     10.36348228	     -7.92850112	     -1.81806917
      3.96000000	     -9.28409469	      5.10828669	     -2.36616196	     -0.75939781	     -0.01304004	     -0.33953930	     29.89835425	    -10.44888324	     -8.39564940	    -61.08538408	    -11.07710104	      0.18819090	     25.69136783	     11.15127060	      9.73008767	     10.31296470	    -12.66739705	      7.18820072	     -0.61374978	    -16.36103876	     10.32937901	     -7.66101627	     -2.33199072
      3.96500000	     -9.23876972	      4.86266163	     -2.15245168	     -0.75356775	     -0.01270760	     -0.34004324	     30.36289321	    -10.26394627	     -8.84975668	    -60.24950603	    -10.47362386	      0.50197884	     25.79900703	     10.39780498	      9.53842002	     10.79119768	    -12.20647415	      7.40336921	     -0.77690790	    -16.67780144	     10.22734328	     -7.44972174	     -2.83669686
      3.97000000	     -9.20091173	      4.65495608	     -1.96158728	     -0.74774890	     -0.01248559	     -0.34048989	     30.83529101	    -10.09128193	     -9.25189486	    -59.36848351	     -9.87395195	      0.77997925	     25.83771475	      9.65278903	      9.36870232	     11.23078765	    -11.73381489	      7.62902592	     -0.92175630	    -16.99458018	     10.13889478	     -7.26954653	     -3.29292863
      3.97500000	     -9.18482555	      4.46065084	     -1.77490036	     -0.74189817	     -0.01234291	     -0.34093222	     31.31322989	     -9.93131467	     -9.65336459	    -58.42610519	     -9.31527448	      1.07643969	     25.83209776	      8.93216996	      9.19781981	     11.57720594	    -11.24836088	      7.83261178	     -0.99287266	    -17.24049796	     10.08371426	     -7.09812001	     -3.73573673
      3.98000000	     -9.16987870	      4.29337961	     -1.60224620	     -0.73606265	     -0.01230251	     -0.34129282	     31.78376833	     -9.77665340	    -10.02028197	    -57.43269646	     -8.76032796	      1.35344191	     25.79345114	      8.21754936	      9.03846114	     11.88651876	    -10.76135430	      8.04547030	     -1.02891579	    -17.41793263	     10.03477710	     -6.96798744	     -4.16487982
      3.98500000	     -9.20324234	      4.14866430	     -1.48308997	     -0.73025412	     -0.01243540	     -0.34155841	     32.31300405	     -9.58111866	    -10.27011092	    -56.39099103	     -8.22225658	      1.57249095	     25.77699091	      7.56977252	      8.88165880	     12.11500193	    -10.28722453	      8.27397380	     -1.01515236	    -17.47511816	     10.04144876	     -6.84086745	     -4.54151533
      3.99000000	     -9.08549495	      4.04050055	     -1.23931322	     -0.72443519	     -0.01245751	     -0.34195550	     32.61877159	     -9.53245708	    -10.69933949	    -55.29932860	     -7.60868793	      1.89135909	     25.58911148	      6.74424930	      8.78325670	     12.47432864	     -9.79447424	      8.45763168	     -1.03173869	    -17.64658267	      9.86496251	     -6.80082367	     -5.07047204
      3.99500000	     -9.06756204	      3.92772370	     -1.07497614	     -0.71860352	     -0.01265700	     -0.34223344	     33.03690203	     -9.40283749	    -11.00664952	    -54.14747403	     -7.06357893	      2.20113992	     25.41333826	      6.03402104	      8.65290089	     12.71396282	     -9.30146395	      8.65015241	     -1.00110070	    -17.72722241	      9.81487715	     -6.72934377	     -5.48251313
      4.00000000	     -9.06709849	      3.83199037	     -0.92720349	     -0.71278707	     -0.01296078	     -0.34245619	     33.46168784	     -9.26751198	    -11.27411975	    -52.93965150	     -6.53918839	      2.49940139	     25.26440788	      5.35750354	      8.53035896	     12.90204887	     -8.82764436	      8.84637471	     -0.93050435	    -17.73344298	      9.78508635	     -6.67677506	     -5.87748514
      4.00500000	     -9.13032299	      3.75843058	     -0.84356370	     -0.70703904	     -0.01343347	     -0.34251198	     33.96446796	     -9.07443620	    -11.39942679	    -51.67632419	     -6.06309684	      2.73500679	     25.20605122	      4.77885132	      8.41590235	     13.01380971	     -8.39568122	      9.05728335	     -0.86271935	    -17.68736213	      9.82035202	     -6.64944295	     -6.24792372
      4.01000000	     -9.02252315	      3.67515507	     -0.62124249	     -0.70124436	     -0.01376007	     -0.34280066	     34.20385094	     -9.00670281	    -11.75907546	    -50.36235960	     -5.46627349	      3.15919735	     24.94934156	      4.00433697	      8.30890922	     13.23174975	     -7.95381554	      9.24998028	     -0.73018184	    -17.59788662	      9.65237643	     -6.63208270	     -6.74571011
      4.01500000	     -9.04385093	      3.59453888	     -0.50636420	     -0.69543155	     -0.01429871	     -0.34292308	     34.59443502	     -8.84472445	    -11.96292276	    -48.98962712	     -4.96036909	      3.54814443	     24.76379148	      3.37823026	      8.18624081	     13.35430091	     -7.52117321	      9.45563189	     -0.63027620	    -17.48552428	      9.65140669	     -6.59151837	     -7.10622633
      4.02000000	     -9.06579102	      3.52284089	     -0.38278312	     -0.68969055	     -0.01488581	     -0.34299915	     34.95893658	     -8.67344487	    -12.12419109	    -47.54687023	     -4.44405670	      3.96254990	     24.60596834	      2.78531042	      8.07192240	     13.45982040	     -7.14196571	      9.65959028	     -0.50828265	    -17.34733376	      9.63484333	     -6.57266462	     -7.49563235
      4.02500000	     -9.14995032	      3.46027630	     -0.30365542	     -0.68405127	     -0.01558688	     -0.34297096	     35.38408384	     -8.44362413	    -12.13942477	    -46.03062302	     -3.99960622	      4.35306542	     24.53151608	      2.29739204	      7.96526166	     13.53350018	     -6.82351711	      9.86980736	     -0.41789561	    -17.23408946	      9.66964738	     -6.56411352	     -7.85941174
      4.03000000	     -9.08043270	      3.37795406	     -0.12372336	     -0.67835572	     -0.01617445	     -0.34308310	     35.57471504	     -8.30064169	    -12.36228753	    -44.47533049	     -3.39912633	      4.96133130	     24.28816003	      1.64279219	      7.84145035	     13.63336470	     -6.51004102	     10.10655989	     -0.19747803	    -16.98722465	      9.52568069	     -6.55773210	     -8.34501537
